<svg id="Layer_1" data-name="Layer 1" xmlns="http://www.w3.org/2000/svg" viewBox="0 0 145.26 28.45"><defs><style>.cls-1{fill:#fff;}</style></defs><title>logo</title><path class="cls-1" d="M0,.88" transform="translate(0.04)"/><path class="cls-1" d="M.06,13.87A8.89,8.89,0,0,0,2.47,19.4c2.41,2.5,5.78,2.74,9,2.74h6.42v-5c0,.07-5.72.22-6.23.2-2-.08-4.35-.45-5.7-2.13-1.1-1.38-.81-3.2-.84-4.87Q5.1,7.18,5.06,4L5,.88H0V8.53C0,10.31-.11,12.13.06,13.87Z" transform="translate(0.04)"/><path class="cls-1" d="M17.92,5.71V.88H12.07s-5.85.19-5.94,6.78c0,2.8,2.1,5.83,4.9,6.05.67.05,6.89.23,6.89.07V9H12.73a1.88,1.88,0,0,1-1.67-1,1.43,1.43,0,0,1,.17-1.62,1.89,1.89,0,0,1,1.52-.75h5.16Z" transform="translate(0.04)"/><path class="cls-1" d="M18.5,17.28v4.83h4.1s4.1-.19,4.16-6.78c0-2.8-1.47-5.83-3.43-6.05A38.06,38.06,0,0,0,18.5,9.2v4.73h3.63a1.33,1.33,0,0,1,1.17,1,1.93,1.93,0,0,1-.12,1.62,1.25,1.25,0,0,1-1.07.75H18.5Z" transform="translate(0.04)"/><path class="cls-1" d="M31.06,2.56h4.12V18.27h7.65v3.25H31.06v-19Z" transform="translate(0.04)"/><path class="cls-1" d="M47.23,4.1a2.12,2.12,0,0,1-1.6-.59A2,2,0,0,1,45.06,2,2,2,0,0,1,45.63.59a2.44,2.44,0,0,1,3.18,0A2,2,0,0,1,49.4,2a2,2,0,0,1-.57,1.46A2.12,2.12,0,0,1,47.23,4.1Zm-2,17.43V7.17h4V21.53Z" transform="translate(0.04)"/><path class="cls-1" d="M57.19,21.53h-4V7.17h3.13L56.8,9A7.46,7.46,0,0,1,59,7.42a6.12,6.12,0,0,1,2.63-.56,4.86,4.86,0,0,1,3.64,1.29,5.18,5.18,0,0,1,1.26,3.76v9.6h-4V12.35A2.64,2.64,0,0,0,62,10.59a2,2,0,0,0-1.6-.65,3.62,3.62,0,0,0-1.64.44,5.41,5.41,0,0,0-1.55,1.19Z" transform="translate(0.04)"/><path class="cls-1" d="M74.2,16.71v4.82h-4V0h4V12.8L79,7.17h4.85l-5.54,6.05,5.81,8.31H79.41l-4-6Z" transform="translate(0.04)"/><path class="cls-1" d="M92.48,2.23a13.18,13.18,0,0,1,3.25.36,12.09,12.09,0,0,1,2.53.93L97.33,6.6a13.82,13.82,0,0,0-2.38-.92,8.35,8.35,0,0,0-2.23-.32,3.8,3.8,0,0,0-2.24.57,1.79,1.79,0,0,0-.8,1.54A1.75,1.75,0,0,0,90.37,9a7.93,7.93,0,0,0,2.23,1l1.81.57a8.27,8.27,0,0,1,3.54,2.14,4.83,4.83,0,0,1,1.28,3.4,5.69,5.69,0,0,1-.45,2.26,5,5,0,0,1-1.35,1.84,6.57,6.57,0,0,1-2.26,1.23,10,10,0,0,1-3.16.45,14,14,0,0,1-6.23-1.38l.93-3.07a15.27,15.27,0,0,0,2.53,1,9.49,9.49,0,0,0,2.59.35,4.08,4.08,0,0,0,2.41-.59A1.91,1.91,0,0,0,95,16.51a1.86,1.86,0,0,0-.14-.71,1.77,1.77,0,0,0-.5-.66,4.79,4.79,0,0,0-1-.63,10,10,0,0,0-1.61-.62l-1.6-.54a12.08,12.08,0,0,1-1.93-.84,6.38,6.38,0,0,1-1.49-1.11,4.57,4.57,0,0,1-1-1.49,5.3,5.3,0,0,1-.35-2,5.65,5.65,0,0,1,.45-2.27,4.85,4.85,0,0,1,1.34-1.79,6.37,6.37,0,0,1,2.2-1.17A9.53,9.53,0,0,1,92.48,2.23Z" transform="translate(0.04)"/><path class="cls-1" d="M109,21.86a6.26,6.26,0,0,1-1.55-.2,4.9,4.9,0,0,1-1.28-.5v7.29h-4V7.11h3l.42,1.6a6.86,6.86,0,0,1,2-1.34,6.07,6.07,0,0,1,2.5-.5,5.59,5.59,0,0,1,4.47,1.91,7.86,7.86,0,0,1,1.64,5.29,9.17,9.17,0,0,1-.57,3.36,7.05,7.05,0,0,1-1.56,2.45,6.44,6.44,0,0,1-2.32,1.49A8.13,8.13,0,0,1,109,21.86Zm.06-12a3.23,3.23,0,0,0-1.75.47,4.48,4.48,0,0,0-1.14.95v6.87a3.57,3.57,0,0,0,2.32.75,3.5,3.5,0,0,0,1.31-.26,3.29,3.29,0,0,0,1.17-.81,4.05,4.05,0,0,0,.84-1.46,6.69,6.69,0,0,0,.32-2.2,7.08,7.08,0,0,0-.2-1.72,4.11,4.11,0,0,0-.59-1.35,2.94,2.94,0,0,0-1-.9A2.53,2.53,0,0,0,109,9.88Z" transform="translate(0.04)"/><path class="cls-1" d="M133,14.24a8.45,8.45,0,0,1-.57,3.19,6.87,6.87,0,0,1-1.58,2.39,6.94,6.94,0,0,1-2.36,1.51,8,8,0,0,1-2.92.53,8.57,8.57,0,0,1-2.91-.48A6.45,6.45,0,0,1,120.37,20a6.54,6.54,0,0,1-1.54-2.3,8.2,8.2,0,0,1-.56-3.12,8.67,8.67,0,0,1,.57-3.27,6.69,6.69,0,0,1,3.94-3.9,8.22,8.22,0,0,1,2.92-.51,8.59,8.59,0,0,1,2.91.48,6.6,6.6,0,0,1,2.32,1.4,6.35,6.35,0,0,1,1.53,2.3A8.4,8.4,0,0,1,133,14.24Zm-4.13.15a7.08,7.08,0,0,0-.27-2.11,4.08,4.08,0,0,0-.72-1.42,2.81,2.81,0,0,0-1.05-.8,3.13,3.13,0,0,0-1.23-.25,3.23,3.23,0,0,0-1.21.23,2.63,2.63,0,0,0-1,.75,3.89,3.89,0,0,0-.72,1.4,7.57,7.57,0,0,0-.27,2.2,6.81,6.81,0,0,0,.27,2,3.94,3.94,0,0,0,.74,1.4,3.07,3.07,0,0,0,1.05.81,2.89,2.89,0,0,0,1.22.27,3.23,3.23,0,0,0,1.21-.23,2.55,2.55,0,0,0,1-.77,4.08,4.08,0,0,0,.72-1.4A7.18,7.18,0,0,0,128.91,14.39Z" transform="translate(0.04)"/><path class="cls-1" d="M144.47,10.06h-3.82v6.62a1.72,1.72,0,0,0,.47,1.4,1.93,1.93,0,0,0,1.25.37,6.54,6.54,0,0,0,1.23-.12,3.53,3.53,0,0,0,1-.33l.6,2.8a8.21,8.21,0,0,1-1.54.48,9.42,9.42,0,0,1-2.17.24,5.42,5.42,0,0,1-3.73-1,4.06,4.06,0,0,1-1.12-3.12V10.06h-2.23V7.17h2.23V2.74h4V7.17h3.82v2.89Z" transform="translate(0.04)"/></svg>